<?xml version="1.0" standalone="no"?>
<!DOCTYPE svg PUBLIC "-//W3C//DTD SVG 1.1//EN" "http://www.w3.org/Graphics/SVG/1.1/DTD/svg11.dtd" >
<svg xmlns="http://www.w3.org/2000/svg">
<metadata>
Created by FontForge 20120731 at Tue Jun 28 11:25:05 2016
 By admin
</metadata>
<defs>
<font id="iconfont" horiz-adv-x="1024" >
  <font-face 
    font-family="iconfont"
    font-weight="500"
    font-stretch="normal"
    units-per-em="1024"
    panose-1="2 0 6 3 0 0 0 0 0 0"
    ascent="896"
    descent="-128"
    x-height="792"
    bbox="-0.235294 -212 1235.61 896"
    underline-thickness="50"
    underline-position="-100"
    unicode-range="U+0078-F0155"
  />
<missing-glyph horiz-adv-x="374" 
d="M34 0v682h272v-682h-272zM68 34h204v614h-204v-614z" />
    <glyph glyph-name=".notdef" horiz-adv-x="374" 
d="M34 0v682h272v-682h-272zM68 34h204v614h-204v-614z" />
    <glyph glyph-name=".null" horiz-adv-x="0" 
 />
    <glyph glyph-name="nonmarkingreturn" horiz-adv-x="341" 
 />
    <glyph glyph-name="x" unicode="x" horiz-adv-x="1001" 
d="M281 543q-27 -1 -53 -1h-83q-18 0 -36.5 -6t-32.5 -18.5t-23 -32t-9 -45.5v-76h912v41q0 16 -0.5 30t-0.5 18q0 13 -5 29t-17 29.5t-31.5 22.5t-49.5 9h-133v-97h-438v97zM955 310v-52q0 -23 0.5 -52t0.5 -58t-10.5 -47.5t-26 -30t-33 -16t-31.5 -4.5q-14 -1 -29.5 -0.5
t-29.5 0.5h-32l-45 128h-439l-44 -128h-29h-34q-20 0 -45 1q-25 0 -41 9.5t-25.5 23t-13.5 29.5t-4 30v167h911zM163 247q-12 0 -21 -8.5t-9 -21.5t9 -21.5t21 -8.5q13 0 22 8.5t9 21.5t-9 21.5t-22 8.5zM316 123q-8 -26 -14 -48q-5 -19 -10.5 -37t-7.5 -25t-3 -15t1 -14.5
t9.5 -10.5t21.5 -4h37h67h81h80h64h36q23 0 34 12t2 38q-5 13 -9.5 30.5t-9.5 34.5q-5 19 -11 39h-368zM336 498v228q0 11 2.5 23t10 21.5t20.5 15.5t34 6h188q31 0 51.5 -14.5t20.5 -52.5v-227h-327z" />
    <glyph glyph-name="uniE600" unicode="&#xe600;" 
d="M245 177v-1v-63v-1h1h512h1v1v63v1h-1h-512h-1zM838 328h-1v-1v-307h-660v660h307h1v1v49v1h-1h-309q-20 0 -34.5 -14.5t-14.5 -34.5v-664q0 -20 14.5 -34.5t34.5 -14.5h664q20 0 34.5 14.5t14.5 34.5v309v1h-1h-49zM244 352h-1v-1v-63v-1h1h487h1v1v63v1h-1h-487z
M246 523h-1v-1v-63v-1h1h345h1v1v63v1h-1h-345zM941 605q-4 4 -10 4h-18q-12 0 -15 11l-10 23q-6 11 3 20l13 13q4 4 4 9.5t-4 9.5l-22 22q-4 4 -9.5 4t-9.5 -4l-13 -13q-5 -5 -12 -5q-4 0 -8 2l-22 10q-12 3 -12 15v18q0 6 -4 10t-10 4h-31q-5 0 -9 -4t-4 -10v-18
q0 -12 -12 -15l-23 -10q-3 -2 -7 -2q-8 0 -12 5l-13 13q-4 4 -10 4t-10 -4l-21 -22q-4 -4 -4 -9.5t4 -9.5l13 -13q8 -9 2 -20l-9 -22q-4 -12 -16 -12h-18q-6 0 -10 -4t-4 -10v-31q0 -5 4 -9t10 -4h18q12 0 16 -12l9 -23q6 -11 -2 -19l-13 -13q-4 -4 -4 -10t4 -10l21 -21
q4 -4 10 -4t10 4l13 12q4 5 12 5q4 0 7 -2l23 -9q12 -4 12 -16v-18q0 -6 4 -10t9 -4h31q6 0 10 4t4 10v18q0 12 11 16l23 9q4 2 8 2q7 0 12 -5l13 -12q4 -4 9.5 -4t9.5 4l22 21q4 4 4 10t-4 10l-13 13q-9 8 -3 19l10 23q3 12 15 12h18q6 0 10 4t4 9v31q0 6 -4 10zM833 579.5
q0 -27.5 -19.5 -46.5t-46.5 -19t-46.5 19t-19.5 46.5t19.5 47t46.5 19.5t46.5 -19.5t19.5 -47z" />
    <glyph glyph-name="uniE602" unicode="&#xe602;" 
d="M984 499q-39 92 -110 163t-163 110q-95 40 -199 40t-199 -40q-92 -39 -163 -110t-110 -163q-40 -95 -40 -199t40 -199q39 -92 110 -163t163 -110q95 -40 199 -40t199 40q92 39 163 110t110 163q40 95 40 199t-40 199zM723 83q-10 -10 -25 -10t-26 10l-164 164l-164 -164
h-1q-10 -11 -25 -11t-26 11t-11 26t11 25l164 165l-164 164q-11 11 -11 26t11 25q10 11 25 11t26 -11l164 -164l164 165h1q10 10 25 10t26 -10.5t11 -25.5t-11 -26l-164 -164l164 -164q11 -11 11 -26t-11 -26z" />
    <glyph glyph-name="uniE604" unicode="&#xe604;" 
d="M334 392q56 -102 148 -140q38 -17 78 1q18 9 42 26t37 33q43 50 70 118q14 36 18 55q8 21 13.5 48t7 60.5t-3 65.5t-20 63.5t-41 55.5t-69.5 39t-101 16q-57 -3 -99.5 -19.5t-66.5 -40.5t-38 -56.5t-17.5 -63.5t-1 -66t7 -58.5t10.5 -45.5q4 -51 26 -91zM399 612v-12h39
l-26 -28l55 28l-18 -28l63 28l-21 -25q48 18 137 70l4 -2q5 -9 13 -17t14 -11l6 -3q10 -11 18.5 -25.5t12.5 -23.5l3 -9h1l3 -31h9v-54q-2 -5 -2 -7q-29 -82 -72 -135q-29 -33 -68 -57q-26 -16 -56 -14q-25 2 -48 15q-54 32 -87 73q-39 48 -53 104l6 24q-1 32 15.5 67
t33.5 54zM823 229q-14 21 -33.5 35t-37.5 19t-34 6.5t-26 0.5l-10 -1q-1 -3 -5 -8t-17.5 -17.5t-31 -22.5t-47.5 -18t-64.5 -8t-65 7.5t-49 18.5t-32.5 22t-19 18l-6 8q-28 2 -51.5 -2t-37 -11t-24 -16.5t-13.5 -13.5t-4 -6l-74 -109q2 -4 5 -11.5t16.5 -28t31 -39t49.5 -41
t69.5 -38.5t93.5 -26.5t120 -9.5t118.5 12.5t90 28.5t63.5 38.5t43.5 41.5t25.5 38t13 27.5t3 10.5zM748 116h-30l-2 -24v-4v-4h-12v32h-32v12h32l-2 28q0 3 2 3v1h12q5 -1 5 -4l-2 -28h29v-12z" />
    <glyph glyph-name="uniE607" unicode="&#xe607;" 
d="M135 551v-628h879v628h-879zM952 28l-126 209l-142 -118l-109 181l-377 -314v502h753v-460h1zM261 331q0 39 27.5 66.5t66.5 27.5t66.5 -27.5t27.5 -66.5t-27.5 -66.5t-66.5 -27.5t-66.5 27.5t-27.5 66.5zM889 677h-879v-628h62v565h816v63h1zM889 677z" />
    <glyph glyph-name="uniE608" unicode="&#xe608;" horiz-adv-x="1236" 
d="M981 -169h-220q-69 0 -117 48.5t-48 116.5v307q0 9 7 16t16.5 7t16.5 -7t7 -16v-306q0 -48 34.5 -82.5t83.5 -34.5h220q83 0 143 54t65 133q5 89 -55 151q-61 63 -147 63h-5q-10 0 -18 8q-7 9 -5 20q15 72 2 137q-20 112 -105 190.5t-199 91.5q-74 8 -143.5 -14.5
t-125.5 -72.5q-55 -49 -85.5 -116t-30.5 -141q0 -9 -5.5 -15.5t-14.5 -7.5q-91 -13 -150 -84.5t-55 -164.5q3 -95 77 -163.5t174 -68.5h107q10 0 17 -7t7 -16.5t-7.5 -15.5t-17.5 -6h-107q-118 0 -205 81t-92 195q-4 105 60 188t165 105q5 78 39 148.5t93 122.5
q63 57 142 82t164 16q129 -13 225.5 -102.5t118.5 -216.5q12 -68 3 -128q96 -7 159 -77q73 -79 66 -186q-6 -97 -79.5 -164.5t-174.5 -67.5zM802 129q-10 0 -17 7l-167 169l-168 -168q-7 -7 -16 -7t-16 7t-7 16.5t7 16.5l184 184q7 7 17 7t16 -7l184 -184q7 -7 7 -16.5
t-7 -16.5q-7 -8 -17 -8z" />
    <glyph glyph-name="uniE60D" unicode="&#xe60d;" 
d="M457 391h-106q-11 0 -20 9t-9 20v106q0 11 9 20t20 9h106q11 0 20 -9t9 -20v-111q0 -10 -9 -17t-20 -7zM577 377l-77 77q-7 7 -7 19t7 19l77 72q7 7 19 7t19 -7l77 -77q7 -7 7 -19t-7 -19l-77 -77q-6 -4 -18.5 -3t-19.5 8zM457 199h-106q-11 0 -20 9t-9 20v106q0 10 9 19
t20 9h106q11 0 20 -9t9 -19v-111q0 -10 -9 -17t-20 -7zM649 199h-106q-11 0 -20 9t-9 20v106q0 10 9 19t20 9h106q11 0 20 -9t9 -19v-111q0 -10 -9 -17t-20 -7z" />
    <glyph glyph-name="uniE60E" unicode="&#xe60e;" 
d="M512 658q-56 0 -107.5 -15.5t-88.5 -38t-70 -54.5t-53 -58t-37 -54t-21.5 -38t-6.5 -16q2 -6 6.5 -15.5t21.5 -38t36.5 -54.5t53 -58t70.5 -54.5t88.5 -38t107.5 -15.5q44 0 85.5 9t74 25t62 36.5t51.5 43.5t41 45.5t31.5 43t21.5 36.5t13 26l4 9q-2 6 -6.5 15.5
t-21.5 38t-36.5 54.5t-53 58t-70.5 54.5t-88.5 38t-107.5 15.5zM512 219q-68 0 -116.5 48.5t-48.5 116.5t48.5 116.5t116.5 48.5t116.5 -48.5t48.5 -116.5t-48.5 -116.5t-116.5 -48.5zM512 219zM594 384q0 -34 -24 -58t-58 -24t-58 24t-24 58t24 58t58 24t58 -24t24 -58z
M594 384z" />
    <glyph glyph-name="uniE610" unicode="&#xe610;" 
d="M814 807q-15 3 -24.5 4t-33.5 1.5t-42 -2t-46 -11t-51.5 -22t-50.5 -37.5t-51 -56l-7 12q-5 8 -23.5 28t-40.5 36.5t-58.5 33t-78.5 21.5q-55 8 -110 -11t-99 -59t-69.5 -107t-21.5 -147q4 -57 33 -120h211l55 244l119 -295l84 222l86 -171h157q19 32 57 32
q28 0 47.5 -19.5t19.5 -47t-19.5 -47t-47.5 -19.5q-36 0 -56 30h-196l-36 84l-77 -228l-126 278l-46 -210l-17 77l-176 1q61 -93 159 -183q82 -75 277 -195q189 116 256 177q232 209 247 390q5 65 -10 120.5t-40.5 89t-57.5 58.5t-56 35.5t-40 12.5z" />
    <glyph glyph-name="uniE613" unicode="&#xe613;" 
d="M286 202q59 0 97.5 38.5t38.5 97.5q0 58 -41.5 97.5t-94.5 39.5q-54 0 -101 -40t-47 -97q0 -58 43.5 -97t104.5 -39zM842 486h-374v-329h-375v490h-91v-763h91v136h840v-136h91v409q0 78 -53 135.5t-129 57.5z" />
    <glyph glyph-name="uniE614" unicode="&#xe614;" 
d="M382 766h-145q-44 0 -76 -31.5t-32 -75.5v-146q0 -43 32 -74t76 -31h250v251q0 44 -30.5 75.5t-74.5 31.5zM435 461h-198q-22 0 -38.5 15t-16.5 37v146q0 22 16.5 38t38.5 16h145q22 0 37.5 -16t15.5 -38v-198zM790 766h-145q-44 0 -76 -31.5t-32 -75.5v-251h253
q44 0 74.5 30.5t30.5 74.5v146q0 44 -30.5 75.5t-74.5 31.5zM790 461h-201v198q0 22 16.5 38t39.5 16h145q22 0 37 -16t15 -38v-146q0 -22 -15 -37t-37 -15zM129 251v-145q0 -44 32 -75t76 -31h145q44 0 74.5 31t30.5 75v252h-250q-44 0 -76 -31.5t-32 -75.5zM435 106
q0 -22 -15.5 -37t-37.5 -15h-145q-22 0 -38.5 15t-16.5 37v145q0 22 16.5 38.5t38.5 16.5h198v-200zM790 358h-253v-252q0 -44 31.5 -75t76.5 -31h145q44 0 74.5 31t30.5 75v145q0 44 -30.5 75.5t-74.5 31.5z" />
    <glyph glyph-name="uniE617" unicode="&#xe617;" 
d="M957 171q0 1 -1 3t-3 4q-4 5 -9 8v2q0 1 1 1h-293q-12 0 -20 -8t-8 -20t8 -20t20 -8h213q-48 -101 -143 -162.5t-210 -61.5q-147 0 -257 96.5t-130 239.5h-57q14 -109 76 -198.5t159 -141.5t209 -52q124 0 228.5 63t162.5 168v-203q0 -11 8.5 -19.5t20 -8.5t19.5 8.5
t8 19.5v280q0 4 -2 10zM80 416v-2l-1 -1h293q12 0 20 8t8 19.5t-8 20t-20 8.5h-214q48 101 143.5 162t210.5 61q147 0 256.5 -96t130.5 -239h56q-13 109 -75 198.5t-159 141t-209 51.5q-124 0 -228.5 -63t-163.5 -168v203q0 12 -8 20t-19.5 8t-20 -8t-8.5 -20v-279
q0 -5 2 -10q1 -1 2 -3t3 -4q4 -5 9 -8z" />
    <glyph glyph-name="uniE618" unicode="&#xe618;" 
d="M878 550q-60 96 -160 153t-218 57q-91 0 -173.5 -35.5t-142.5 -95t-95 -142t-35 -173.5q0 -133 73 -244q60 -97 160.5 -154t217.5 -57q91 0 173.5 35.5t142.5 95t95 142t35 173.5q0 134 -73 245zM778 389q-203 -196 -297 -297q-14 -16 -28.5 -15.5t-22.5 7t-8 8.5
l-173 172q-17 20 -2 40q16 22 42 7q7 -4 14 -12q12 -13 27.5 -27t29 -29t27.5 -28t25.5 -25t20.5 -20.5t13 -13.5l5 -5l288 288q13 12 30 6t21 -22t-12 -34z" />
    <glyph glyph-name="uniE61A" unicode="&#xe61a;" 
d="M512 748q-91 0 -174 -35.5t-143 -95.5t-95.5 -143t-35.5 -174t35.5 -174t95.5 -143t143 -95.5t174 -35.5t173.5 35.5t142.5 95.5t96 143t36 174t-36 174t-96 143t-142.5 95.5t-173.5 35.5zM512 -105q-110 0 -203.5 54.5t-148 147.5t-54.5 203t54.5 203.5t148 148
t203.5 54.5t203 -54.5t147.5 -148t54.5 -203.5t-54.5 -203t-147.5 -147.5t-203 -54.5zM533 578h-43v-256h-256v-43h256v-235h43v235h235v43h-235v256z" />
    <glyph glyph-name="uniE61B" unicode="&#xe61b;" horiz-adv-x="1076" 
d="M930 364l-47 47q-10 9 -25 8t-26 -13l-350 -349q-11 -12 -12.5 -27t8.5 -25l46 -46q10 -10 25 -8.5t26 13.5l350 349q11 12 12.5 27t-7.5 24zM559 -84l2 -2l-145 -76h294q16 0 27.5 11.5t11.5 27.5v225l-179 -179q-1 -1 -11 -7zM432 25q5 13 13 22l304 303v219
q0 17 -11.5 28.5t-27.5 11.5h-554q-16 0 -28 -11.5t-12 -28.5v-692q0 -16 12 -27.5t28 -11.5h196l78 189zM215 550h416q16 0 27.5 -7.5t11.5 -17.5t-11.5 -17t-27.5 -7h-416q-16 0 -27.5 7t-11.5 17t11.5 17.5t27.5 7.5zM215 419h416q16 0 27.5 -7.5t11.5 -18t-11.5 -18
t-27.5 -7.5h-416q-16 0 -27.5 7.5t-11.5 18t11.5 18t27.5 7.5zM215 233q-16 0 -27.5 8t-11.5 19t11.5 18.5t27.5 7.5h257q17 0 28.5 -7.5t11.5 -18.5t-11.5 -19t-28.5 -8h-257zM439 3l-75 -173l166 85z" />
    <glyph glyph-name="uniE61C" unicode="&#xe61c;" 
d="M336 145h-55q-10 0 -17.5 7t-7.5 17.5t7.5 18t17.5 7.5h52q2 45 16 88h-68q-10 0 -17.5 7.5t-7.5 18t7.5 17.5t17.5 7h91q29 52 76 89h-167q-10 0 -17.5 7.5t-7.5 18t7.5 17.5t17.5 7h180q10 0 17.5 -7t7.5 -18q68 39 147 39q92 0 167 -50v130q0 12 -8 20l-122 120
q-8 8 -20 8h-481q-12 0 -20 -8.5t-8 -19.5v-686q0 -12 8 -21l86 -85q8 -8 19.5 -8t19.5 8l87 87l90 -87q8 -8 19.5 -8t19.5 8l20 19q-70 31 -116.5 93t-57.5 139zM590 651q0 10 7.5 17.5t18 7.5t17.5 -7.5t7 -17.5v-84h98q10 0 17.5 -7.5t7.5 -18t-7.5 -17.5t-17.5 -7h-106
q-17 0 -29.5 12t-12.5 30v92zM633.5 436q-103.5 0 -177 -73t-73.5 -176.5t73.5 -177t177 -73.5t176.5 73.5t73 177t-73 176.5t-176.5 73zM723 148q-41 -43 -69 -68q-44 -40 -69 -40q-20 0 -49 24q-16 13 -38 34q-24 24 -47 48q-11 12 -10.5 28.5t12.5 28t28.5 11t27.5 -12.5
q17 -18 39 -39q23 -23 38 -35q29 24 88 85q43 45 79 86q12 12 28.5 13t28.5 -10t13 -27.5t-10 -29.5q-50 -54 -90 -96z" />
    <glyph glyph-name="uniE620" unicode="&#xe620;" 
d="M375 395l117 116l-349 321q-22 -72 -5 -136.5t54 -119.5t79.5 -95t72 -63t31.5 -23zM750 325h-113q-11 5 -13 18t1 24l3 10q17 14 43.5 35.5t82 73.5t79.5 86.5t35.5 95.5t11.5 106l-1 44l-408 -391q18 13 41 13q30 0 51.5 -21.5t21.5 -52t-21.5 -52t-51.5 -21.5
t-51.5 21.5t-21.5 51.5q0 25 15 45l-90 -86h-91q-80 0 -137 -57t-57 -137.5t57 -137.5t137.5 -57t137.5 57t57 138q0 49 -23 92q53 32 138 7q-27 -46 -27 -99q0 -81 57 -138t137.5 -57t137.5 57t57 137.5t-57 137.5t-138 57zM273.5 10q-50.5 0 -85.5 35t-35 85.5t35 86
t85.5 35.5t85.5 -35.5t35 -86t-35 -85.5t-85.5 -35zM750.5 10q-50.5 0 -85.5 35t-35 86q0 41 25 73l3 5q37 43 92 43q51 0 86 -35.5t35 -86t-35 -85.5t-85.5 -35z" />
    <glyph glyph-name="uniE621" unicode="&#xe621;" 
d="M512 99h-301q0 49 12.5 77.5t46.5 41.5q4 1 10 4q105 39 140 68q10 8 16 14.5t10 10t3.5 7.5t-0.5 4.5t-4 5t-5 5.5q-6 7 -10 21.5t-5 25.5l-1 10q-19 6 -26.5 26.5t-4.5 38t8 17.5q8 0 8.5 6.5t-3.5 34.5q-7 35 -3 57t21 43q10 13 32 21.5t39 9.5l17 2q7 0 18.5 -1.5
t35.5 -10t34 -21.5q17 -21 21 -43t-3 -57q-4 -28 -3.5 -34.5t8.5 -6.5q5 0 7.5 -17.5t-4.5 -38t-26 -26.5q-2 -41 -16 -57q-1 -1 -4 -4.5t-4 -4.5t-1.5 -4t1 -5t5 -6.5t9 -10t14.5 -12.5q44 -37 150 -72q34 -11 46.5 -40t12.5 -79h-301zM836 130h98q0 36 -9.5 58t-35.5 30
q-79 26 -111 53q-7 7 -11.5 12t-7.5 7.5t-2.5 5.5t0.5 3.5t3 3.5l4 3q4 6 7.5 16.5t3.5 18.5l1 8q14 4 19.5 18.5t3.5 28t-6 13.5q-7 0 -7 4.5t5 25.5q5 26 2 42.5t-17 31.5q-7 10 -23.5 16t-29.5 7l-12 2q-50 -2 -66 -25q-2 -2 -5 -7t-5 -7q18 -11 20 -31q4 -33 -8 -64
q-9 -18 -8 -32.5t16 -28.5q6 -5 7 -18.5t-1 -25.5l-2 -11q58 -31 119 -51q58 -19 58 -107zM188 130h-98q0 36 9.5 58t35.5 30q79 26 111 53q14 13 18.5 19.5t1.5 9.5l-6 6q-4 6 -7.5 16.5t-3.5 18.5l-1 8q-14 4 -19.5 18.5t-3.5 28t6 13.5q7 0 7 4.5t-5 25.5q-5 26 -2 42.5
t17 31.5q7 10 23.5 16t29.5 7l12 2q50 -2 66 -25q2 -2 5 -7t5 -7q-18 -11 -20 -31q-4 -33 8 -64q9 -18 8 -32.5t-16 -28.5q-6 -5 -7 -18.5t1 -25.5l2 -11q-58 -31 -119 -51q-58 -19 -58 -107z" />
    <glyph glyph-name="uniE623" unicode="&#xe623;" 
d="M496 328q61 60 403 401l22 -22q15 -15 23 -22q-344 -344 -389 -390l-12 -12q-1 -2 3.5 -6.5l12.5 -12.5l8 -7q44 -44 377 -376q-7 -8 -22 -22.5t-22 -22.5q-58 57 -123 122l-145 144q-79 80 -122 124l-4 4l-6 6l-2 2q-2 0 -7.5 -5.5l-12.5 -12.5l-6 -7
q-42 -42 -119 -118.5t-140 -139.5t-118 -119l-22 22q-15 15 -23 22q346 346 389 390q2 2 5.5 5t5 4.5t1.5 2.5q1 2 -24 27q-61 61 -182 181t-182 182l-5 4q-3 4 -6 6l-2 2q0 1 21 22q11 11 21 20l3 2q2 0 7 -4.5t11.5 -11.5t7.5 -8z" />
    <glyph glyph-name="uniE630" unicode="&#xe630;" 
d="M829 -51l-625 -13q-28 0 -48 20.5t-20 49.5v550q0 29 20 49.5t48 20.5h129q35 0 56 -30q12 -18 15 -21q42 -43 105.5 -43t106.5 44q8 8 18 21q20 29 55 29h128q28 0 48 -20.5t20 -49.5v-550q0 -57 -56 -57zM751 404q-11 11 -25.5 11.5t-24.5 -9.5l-209 -212l-148 137
q-11 10 -26 10t-26 -10.5t-11 -26t11 -25.5l151 -146q2 -2 7.5 -6.5t7 -6t5.5 -4.5t6 -4t6 -2.5t8 -1.5h9q34 2 49 25l212 221q10 10 9.5 25t-11.5 25zM593 629q-34 -35 -82.5 -35t-82.5 35q-11 12 -18 23v1v1h-1q-15 28 -15 59q0 50 34 85t82.5 35t82.5 -35t34 -85
q0 -51 -34 -84zM593 629z" />
    <glyph glyph-name="uniE632" unicode="&#xe632;" 
d="M512 623h324q24 0 37 -2q87 -11 87 -98q1 -228 0 -438q0 -48 -29.5 -78t-76.5 -30q-362 -1 -686 0q-47 0 -75 28.5t-29 75.5q-1 219 0 437q1 104 107 105h341zM413 126v82q-2 25 -19 44t-42 21q-63 5 -128 0q-22 -1 -37.5 -15t-18.5 -36q-3 -14 -4 -29.5t-1 -36t-1 -30.5
h251zM365 402q-1 32 -22.5 53.5t-53.5 21.5t-54.5 -22t-22.5 -54t22.5 -54t54.5 -22t54 22.5t22 54.5zM661 223q107 0 118 1q33 0 35 26q1 30 -33 30q-122 1 -239 0q-33 0 -32 -31q1 -25 35 -25q11 -1 116 -1zM661 121h118q34 0 35 26q0 13 -8.5 21t-24.5 8q-107 1 -240 0
q-16 0 -22 -9q-12 -18 -6 -27q11 -17 28 -18t120 -1zM704 325h75q16 0 25.5 7.5t8.5 19.5q0 25 -32 26q-78 1 -156 0q-15 0 -24 -8.5t-7 -19.5q3 -25 33 -25h77z" />
    <glyph glyph-name="uniE634" unicode="&#xe634;" 
d="M910 724zM512 292q-68 0 -116 48t-48 115.5t48 116t116 48.5t116 -48.5t48 -116t-48 -115.5t-116 -48zM512 564q-45 0 -77 -32t-32 -76q0 -45 32 -77t77 -32t77 32t32 76.5t-32 76.5t-77 32zM823 696l-15 22l-1 1l-3 3q-3 4 -10 10l-9 10l-8 9q-2 2 -7.5 6.5t-7.5 7.5
q-3 1 -3 3q-9 7 -20 5.5t-18 -10.5q-10 -13 -3 -28q3 -6 8 -10q2 -2 4 -3q1 -1 4 -3.5t5 -4.5l13 -13q1 -1 2.5 -3t3.5 -3.5t4 -3.5q1 -1 3.5 -4t3.5 -5q73 -91 73 -205q0 -44 -27.5 -106t-66 -118t-87 -116t-83 -97.5t-61.5 -64.5q-47 48 -97.5 105.5t-106 130.5t-91 144.5
t-35.5 121.5q-1 89 42.5 164.5t118.5 119.5t164 44q5 0 15 -0.5t15 -0.5h5q25 -3 54 -11q2 -1 5 -2t5 -2t5 -2h2q11 -3 21 1.5t13 14.5q4 11 0 21t-15 14q-4 1 -11.5 3.5t-11.5 4.5q-23 8 -60 11q-4 0 -6 1h-9q-10 1 -27 1q-103 0 -191 -51t-139.5 -139t-51.5 -192
q0 -41 19 -92.5t46.5 -99t67.5 -102t72.5 -93.5t71.5 -81t54.5 -58t31.5 -31q1 -2 2 -2q7 -7 18 -7q6 0 12.5 3t44 41t92 101.5t106.5 134t88.5 149.5t36.5 137q1 120 -70 219z" />
    <glyph glyph-name="uniE635" unicode="&#xe635;" 
d="M708 127q13 -35 37 -64q22 -27 57 -58.5t59 -50.5t24 -18h-727q93 69 144 131q19 23 30 50q-88 50 -140.5 139t-52.5 195q0 103 50 191t136 139t187 51t187 -51t136 -139t50 -191q0 -101 -48 -187t-129 -137zM512 699q-100 0 -171 -73t-71 -175.5t71 -175t171 -72.5
t171 72.5t71 175t-71 175.5t-171 73zM512 317q-54 0 -92.5 39t-38.5 94.5t38.5 94.5t92.5 39t92.5 -39t38.5 -94.5t-38.5 -94.5t-92.5 -39z" />
    <glyph glyph-name="uniE63F" unicode="&#xe63f;" 
d="M512 284zM512 284zM512 -147q-91 0 -173.5 35.5t-142.5 95.5t-95.5 142.5t-35.5 173.5t35.5 173.5t95.5 142.5t142.5 95.5t173.5 35.5t173.5 -35.5t142.5 -95.5t95.5 -142.5t35.5 -173.5t-35.5 -173.5t-95.5 -142.5t-142.5 -95.5t-173.5 -35.5zM512 715
q-112 0 -208 -55.5t-151.5 -151.5t-55.5 -208t55.5 -208t151.5 -151.5t208 -55.5t208 55.5t151.5 151.5t55.5 208t-55.5 208t-151.5 151.5t-208 55.5zM656 428q-1 19 -7.5 32.5t-16 13.5t-16.5 -14t-7 -33t7 -33t16.5 -14t16 13.5t7.5 33.5v1zM679.5 364q-17.5 0 -28.5 18
t-11 45.5t11 45.5t28.5 18t28.5 -18t11 -45.5t-11 -45.5t-28.5 -18zM680 459q-8 -10 -8 -31.5t8 -30.5q7 9 7 30.5t-7 31.5zM321 428q-1 19 -7.5 32.5t-16.5 13.5t-16.5 -14t-6.5 -33t6.5 -33t16.5 -14t16.5 13.5t7.5 33.5v1zM344.5 364q-17.5 0 -28.5 18t-11 45.5t11 45.5
t28.5 18t28.5 -18t11 -45.5t-11 -45.5t-28.5 -18zM344 459q-7 -10 -7 -31.5t7 -30.5q8 9 8 30.5t-8 31.5zM783 244q0 -96 -79.5 -163.5t-191.5 -67.5t-191.5 67.5t-79.5 163.5h542zM512 -3q-119 0 -203 72.5t-84 174.5q0 7 4.5 11.5t11 4.5t11.5 -4.5t5 -11.5
q0 -89 74.5 -152t180.5 -63t180.5 63t74.5 152q0 7 5 11.5t11.5 4.5t11 -4.5t4.5 -11.5q0 -102 -84 -174.5t-203 -72.5zM241 260h542v-32h-542v32z" />
    <glyph glyph-name="uniE640" unicode="&#xe640;" 
d="M992 -180q-7 -7 -15.5 -7t-13.5 7l-189 189l29 29l189 -186q11 -16 0 -32zM454.5 -71q-116.5 0 -215.5 57.5t-156 156t-57 215t57 215.5t156 156t215.5 57t215 -57t156 -156t57.5 -215.5t-57.5 -215t-156 -156t-215 -57.5zM454 742q-105 0 -193.5 -52t-139.5 -140
t-51 -192q0 -106 52 -195t140 -141t192 -52q106 0 195 52t141 141t52 194.5t-52 194t-141 139.5t-195 51z" />
    <glyph glyph-name="uniE645" unicode="&#xe645;" 
d="M512 769q-104 0 -192.5 -51.5t-140 -140t-51.5 -193t51.5 -193t140 -139.5t192.5 -51t192.5 51t140 139.5t51.5 193t-51.5 193t-140 140t-192.5 51.5zM512 179q-19 0 -32 13t-13 31.5t13 31.5t32 13t32 -13t13 -31.5t-13 -31.5t-32 -13zM557 373q0 -19 -13 -32t-32 -13
t-32 13t-13 32v208q0 19 13 32t32 13t32 -13t13 -32v-208z" />
    <glyph glyph-name="uniE646" unicode="&#xe646;" 
d="M925 -42l-211 456v112h46v88h-496v-88h40v-113l-206 -455q-16 -37 6 -71.5t63 -34.5h690q41 0 63 34.5t5 71.5zM170 -65l209 462v129h260v-129l215 -462h-684zM379 221q-1 1 -30.5 -60.5t-58.5 -123.5l-30 -62h504l-141 294q-6 -6 -16 -15.5t-40.5 -29.5t-59 -30
t-64.5 -5t-64 32zM533 353q26 0 44.5 18.5t18.5 44.5t-18.5 44.5t-44.5 18.5t-44.5 -18.5t-18.5 -44.5t18.5 -44.5t44.5 -18.5zM554 664q17 0 29.5 12t12.5 29.5t-12.5 30t-29.5 12.5t-29.5 -12.5t-12.5 -30t12.5 -29.5t29.5 -12zM470 227q17 0 29.5 12.5t12.5 29.5
t-12.5 29.5t-29.5 12.5t-29.5 -12.5t-12.5 -29.5t12.5 -29.5t29.5 -12.5z" />
    <glyph glyph-name="uniE64F" unicode="&#xe64f;" 
d="M107 562h764v-142h53v248q0 27 -22 49.5t-49 22.5h-53v-36q0 -25 -21 -39t-50 -14t-50 14t-21 39v36h-338v-36q0 -24 -21.5 -38.5t-50 -14.5t-49.5 14.5t-21 38.5v36h-54q-27 0 -49 -22t-22 -50v-604q0 -27 22.5 -49t48.5 -22h374v53h-391v516zM729 686q17 0 26 11t9 25
v106q0 15 -8.5 25.5t-26.5 10.5t-27 -10.5t-9 -25.5v-106q0 -14 9.5 -25t26.5 -11zM249 686q17 0 26 11t9 25v106q0 15 -8.5 25.5t-26.5 10.5t-27 -10.5t-9 -25.5v-106q0 -14 9.5 -25t26.5 -11zM782 366q-96 0 -163.5 -67.5t-67.5 -163.5t67.5 -163.5t163.5 -67.5
t163.5 67.5t67.5 163.5t-67.5 163.5t-163.5 67.5zM782 -43q-77 0 -127.5 50.5t-50.5 127.5t50.5 127.5t128 50.5t127.5 -50.5t50 -127.5t-50 -127.5t-128 -50.5zM887 197q-9 0 -16 -7l-117 -99l-50 49q-7 8 -16 8t-15 -6t-6 -16q0 -9 7 -16l66 -66q7 -7 15.5 -7t16.5 7
l133 116q7 7 7 16q-3 8 -10 14.5t-15 6.5zM404 327q-8 -8 -22 -16q-3 -3 -10.5 -7t-10.5 -7q-6 -4 -18.5 -13t-18.5 -14q-17 -11 -31 -28q-14 -18 -21 -36q-7 -16 -7 -46h222v53h-144q11 16 27 27q5 4 15 11t15 10q21 15 30 22q18 11 27 23q11 10 19 28q8 14 8 39
q0 22 -9 39q-8 18 -23 31q-12 11 -34 17q-25 8 -39 8q-25 0 -48 -9q-19 -7 -36 -27q-12 -15 -21 -39q-8 -21 -6 -48h59q0 16 2 25q3 15 9 23q5 10 14 16q11 7 23 7q22 0 32 -12q13 -13 13 -34q0 -16 -8 -25q4 -5 -8 -18v0zM578 347l12 69h125v52h-169l-30 -168h55z" />
    <glyph glyph-name="uniE651" unicode="&#xe651;" 
d="M817 723h-140v-107h-336v107h-140q-16 0 -27.5 -14t-11.5 -31v-695q0 -17 14 -31t31 -14h610q17 0 31 14t14 31v695q0 17 -14 31t-31 14zM380 454h107v106h45v-106h100v-45h-100v-101h-45v101h-107v45zM683 67q-8 -17 -28 -17h-292q-9 0 -15.5 4.5t-6.5 12.5v6q0 8 7 15
t15 7h298q8 0 15 -7t7 -15v-6zM683 151q-8 -22 -28 -22h-292q-8 0 -15 7t-7 15v6q0 8 7 15t15 7h298q8 0 15 -7t7 -15v-6zM683 230q-8 -23 -28 -23h-292q-8 0 -15 7t-7 16v5q0 9 7 16t15 7h298q8 0 15 -7t7 -16v-5zM641 740h-65q5 12 5 25q0 28 -20 48.5t-49 20.5t-49 -20.5
t-20 -48.5q0 -13 5 -25h-65v-85h258v85z" />
    <glyph glyph-name="uniE653" unicode="&#xe653;" 
d="M716 487l-300 -301l-134 135q-10 9 -23 9t-22.5 -9.5t-9.5 -22.5t10 -22l157 -158q10 -9 23 -9t22 9q2 2 4 5l318 319q9 9 9 22.5t-9.5 22.5t-22.5 9t-22 -9zM512 746q-91 0 -173.5 -35t-142.5 -95t-95 -142.5t-35 -173.5t35 -173.5t95 -142.5t142.5 -95t173.5 -35
t173.5 35t142.5 95t95 142.5t35 173.5t-35 173.5t-95 142.5t-142.5 95t-173.5 35zM512 -90q-106 0 -196 52t-142 142t-52 196t52 196t142 142t196 52t196 -52t142 -142t52 -196t-52 -196t-142 -142t-196 -52z" />
    <glyph glyph-name="uniE654" unicode="&#xe654;" 
d="M817 615q-1 -1 -1 -4q-1 0 -1 -1t-1 -3v-1l-1 -1q0 -2 -1 -3v-1q-1 -1 -1 -2v-1h-1v-2h-1q0 -2 -1 -2v-2h-1v-1q-1 -1 -1 -2q-1 -1 -1.5 -2t-1.5 -2q0 -1 -1 -2q0 -1 -1 -2q-1 -2 -3 -4q-1 -2 -3 -4l-1 -1l-2 -2v0v-1l-5 -5l-11 -11l-6 -4v-1q-6 -5 -13 -9q32 -7 62 -21
v97h-2zM0 703q7 -62 95.5 -109.5t221.5 -61.5q28 -3 57 -4q18 -1 36 -1h11q41 1 81 5q48 5 92 15l8 2q28 7 54 15q5 2 9 4q11 3 21 7q6 3 13 6t13 6q3 2 6 3l18 10q13 8 23 16q3 1 6 4q10 8 18 16l4 4q8 8 14 17q3 4 5 9q3 4 5 9q1 3 2 5q5 12 6 23v4v5q0 50 -54.5 92.5
t-149 67t-206 24.5t-205.5 -24.5t-149 -67t-55 -92.5v-5v-4zM458 17q-7 -1 -11 -1h-3h-15h-3q-9 -1 -16.5 -1t-16.5 1h-1h-2h-15h-3q-8 0 -16 1h-2q-8 1 -15 1h-1q-7 1 -16 2h-2q-8 1 -15 1q-1 1 -3 1q-8 1 -15 2t-15 2h-2q-7 1 -14 3h-2q-8 2 -15 3h-1q-15 3 -29 7h-1
l-14 4h-1q-7 2 -13 4h-1q-7 2 -13 5q-7 2 -13 4h-1v0q-62 23 -101 55t-48 68h-3v-123q0 -61 80.5 -109.5t207.5 -66.5v0q5 0 13 -1q2 -1 3 -1q7 -1 13 -1q6 -1 13 -2h4q7 0 13 -1q6 0 14 -1h3h14q6 -1 14 -1h4h14h14h3q8 0 14 1h14h3q8 1 14 1q6 1 14 1h3q7 1 13 2q6 0 13 1
q2 0 4 1q7 1 13 1q78 11 142 35q-128 7 -216 102zM0 269v-3q1 -1 1 -2v-3v-1q0 -1 1 -3v-1q1 -3 1 -5q1 -2 1 -4l1 -1q0 -2 1 -3v-1l2 -3v-2q1 -1 2 -3v-1l2 -4h1l2 -4v-1q1 -1 2 -3q1 0 1 -1q1 -1 2 -3l1 -1q1 -1 2 -3q1 0 1 -1q2 -2 3 -4h1q1 -2 3 -4h1v-1l2 -2q1 -1 1 -2
q2 -1 3 -2v-1h1l4 -4l4 -4h1q2 -2 4 -3q0 -1 1 -1l3 -3q1 -1 2 -1l3 -3h1q5 -4 11 -7v-1q2 -1 5 -3h1q2 -2 4 -3q1 0 2 -1q2 -1 5 -3l12 -6l1 -1q3 -1 5 -3h1q3 -1 6 -3h1q13 -6 27 -12h1q3 -1 7 -2v-1q15 -5 31 -10q49 -15 106 -23v0h2h1q4 -1 8 -1h1h1q2 -1 3 -1h1
q4 0 9 -1h1h2h3q1 0 1 -1h7h2q2 -1 4 -1v0q6 0 11 -1h1h1h3h1h8h1q0 -1 1 -1h3h1h11h1h1h2h2q3 -1 7 -1q1 0 2 0.5l1 0.5h2h2h-1v-1h7h6q-33 66 -33 141v1v3q-1 0 -2 -1h-1q-14 1 -16 1h-2q-9 1 -15 1h-1l-16 2h-2q-8 1 -15 2h-3q-8 1 -15 2t-15 2h-2q-7 2 -14 3h-2
q-8 2 -15 3h-1q-15 3 -29 7h-1l-14 4h-1q-7 2 -13 4h-1q-7 3 -13 5q-2 0 -6.5 1.5t-6.5 2.5v0h-1v-1l-14 6h-1q-7 3 -13 6h-1q-7 3 -13 7h-1q-7 3 -13 7l-12 6v1q-12 7 -23 14q-42 31 -55 67q-2 5 -3 9h-3v-122v-4v-1v0zM0 487v-3l1 -2v-2v-2q1 -1 1 -3v-1q1 -4 2 -9h1v-1
q0 -1 1 -3v-1l2 -4q22 -50 97.5 -87.5t182.5 -51.5v0q5 -1 13 -2q2 0 3 -1q7 0 13 -1t13 -1q2 0 4 -1q7 0 13 -1h14q2 -1 3 -1h21q21 83 82 144h-1h-1h-2h-5q-8 -1 -11 -1h-2h-1h-15h-3h-16h-17h-1h-2h-15h-1h-2q-4 1 -12 1h-2h-2h-2q-1 0 -2.5 0.5t-2.5 0.5h-10h-1
q-2 1 -9 1q-5 1 -7 1h-1h-1q-8 1 -15 2h-1h-1h-1q-8 1 -15 2v0h-5l-2 1q-1 0 -2 0.5t-2 0.5h-2h-2h-2v1h-2h-2q-7 2 -10 2h-1h-1q-8 2 -15 3l-1 1q-7 1 -15 3q-7 1 -14 3h-1l-14 4l-1 1q-7 2 -13 3l-1 1q-7 2 -13 4q-7 2 -13 4h-1v1q-4 1 -9 3l-2 1l-6 2q-2 1 -3 1
q-3 2 -6 3h-1l-1 1q-5 2 -8 4h-1q-4 2 -7 3q-1 1 -2 1q-3 2 -6 3l-2 1q-3 2 -7 4v0q-4 2 -8 5q-3 2 -7 4h-1v1q-3 2 -6 3l-1 1q-10 7 -19 14v1q-3 2 -5 4h-1q-5 5 -10 11q-3 2 -5 5l-1 1l-2 2v1h-1q-1 2 -3 4q-1 2 -3 4q0 1 -1 2q0 1 -1 2t-1 2q-1 1 -1 2l-2 2v1q-1 0 -1 2
h-1v1v1q-1 1 -1 2v0q-1 2 -2 3v1q0 1 -1 3v1q-1 0 -1 1q-1 2 -1 3v1q-1 3 -1 4h-3v-122v-5v-1v0zM1020 -49l-112 112q57 74 57 167q0 114 -80.5 194.5t-194.5 80.5t-194 -80.5t-80 -194t80 -194t194 -80.5q74 0 138 37l117 -117q10 -11 23 2l50 50q13 13 2 23zM480 230.5
q0 87.5 61.5 149t148.5 61.5t149 -61.5t62 -149t-62 -149t-149 -61.5t-148.5 61.5t-61.5 149zM904 58zM834 -4zM839 0zM845 4zM850 8h1h-1zM856 12zM861 16zM866 20zM871 24zM876 29zM881 33zM886 38zM899 53zM895 48zM891 43z" />
    <glyph glyph-name="uniE656" unicode="&#xe656;" 
d="M847 348h-55q-22 -115 -100.5 -190.5t-179.5 -75.5t-179.5 75.5t-100.5 190.5h-55q21 -132 105 -223t198 -104v-85h-128v-64h320v64h-128v85q114 13 198 104t105 223zM519.5 896q-66.5 0 -119 -39t-72.5 -101h383q-20 62 -72.5 101t-119 39zM519 155q84 0 143 59t59 143
v160h-404v-160q0 -84 59 -143t143 -59zM721 692h-404v-111h404v111z" />
    <glyph glyph-name="uniE65E" unicode="&#xe65e;" 
d="M914 428q-43 132 -155 212.5t-247 80.5v91l-201 -116l201 -116v88q118 0 216 -70t136 -187q32 -103 7 -202.5t-98 -171.5l34 -41q85 83 114.5 197.5t-7.5 234.5zM510 -71q-118 0 -215.5 70t-134.5 186q-31 103 -6.5 202.5t96.5 171.5l-34 41q-84 -83 -113.5 -197.5
t7.5 -233.5q42 -132 153.5 -212.5t246.5 -80.5v-88l201 116l-201 116v-91z" />
    <glyph glyph-name="uniE66A" unicode="&#xe66a;" horiz-adv-x="1389" 
d="M790 -128h-193q-25 0 -43 18t-18 43q0 24 18 42t43 18h193q25 0 42.5 -18t17.5 -42q0 -25 -17.5 -43t-42.5 -18zM790 -128zM790 53h-193q-25 0 -43 17.5t-18 42.5t18 43t43 18h193q25 0 42.5 -18t17.5 -43t-17.5 -42.5t-42.5 -17.5zM790 53zM790 233h-193q-25 0 -43 18
t-18 43t18 42.5t43 17.5h193q25 0 42.5 -17.5t17.5 -42.5t-17.5 -43t-42.5 -18zM790 233zM790 414h-193q-25 0 -43 17.5t-18 42.5t18 43t43 18h193q25 0 42.5 -18t17.5 -43t-18 -42.5t-42 -17.5zM790 414zM790 594h-193q-25 0 -43 18t-18 43t18 42.5t43 17.5h193
q25 0 42.5 -17.5t17.5 -42.5t-17.5 -43t-42.5 -18zM790 594zM790 775h-193q-25 0 -43 18t-18 42q0 25 18 43t43 18h193q25 0 42.5 -18t17.5 -43q0 -24 -17.5 -42t-42.5 -18zM790 775z" />
    <glyph glyph-name="uniE66C" unicode="&#xe66c;" 
d="M511 831q-91 0 -173.5 -35.5t-142 -95t-95 -142t-35.5 -173.5t35.5 -173.5t95 -142t142 -95t173.5 -35.5t173.5 35.5t142 95t95 142t35.5 173.5t-35.5 173.5t-95 142t-142 95t-173.5 35.5zM511 -13q-108 0 -199.5 53.5t-145 145t-53.5 199.5t53.5 199.5t145 145
t199.5 53.5t199.5 -53.5t145 -145t53.5 -199.5t-53.5 -199.5t-145 -145t-199.5 -53.5zM511 -13zM556 385l133 133q9 9 9 22.5t-9 22.5t-22.5 9t-22.5 -9l-133 -133l-133 133q-10 9 -23 9t-22 -9t-9 -22t9 -23l133 -133l-129 -129q-9 -9 -9 -22t9.5 -22.5t22.5 -9.5t22 9
l129 129l130 -130q9 -9 22 -9t22.5 9.5t9.5 22.5t-9 22zM556 385z" />
    <glyph glyph-name="uniE670" unicode="&#xe670;" 
d="M174 692h675v-86h-675v86zM520 427h-346v-86h266q31 52 80 86zM174 294v-86h228q1 45 16 86h-244zM174 161v-85h261q-22 40 -29 85h-232zM821.5 352.5q-61.5 61.5 -149 61.5t-149 -61.5t-61.5 -149t61.5 -149t149 -61.5t149 61.5t61.5 149t-61.5 149zM672.5 61
q-58.5 0 -100.5 42t-42 100.5t42 100.5t100.5 42t100.5 -42t42 -100.5t-42 -100.5t-100.5 -42zM793 181v45h-98v98h-45v-143h143zM849 559h-675v-85h675v85z" />
    <glyph glyph-name="uniE676" unicode="&#xe676;" 
d="M502.5 658q-99.5 0 -184 -49t-134 -133.5t-49.5 -184.5t49.5 -184.5t134 -134t184 -49.5t184.5 49.5t134 134t49 184.5t-49 184.5t-134 133.5t-184.5 49zM502.5 -35q-88.5 0 -163.5 43.5t-118.5 118.5t-43.5 163.5t43.5 163.5t118.5 119t163.5 44t163.5 -44t118.5 -119
t43.5 -163.5t-43.5 -163.5t-118.5 -118.5t-163.5 -43.5zM451 167q5 -5 12.5 -5t12.5 6l215 222q6 6 5.5 13.5t-5.5 12.5t-12.5 5t-12.5 -6l-216 -222h25l-131 120q-5 5 -12.5 5t-12.5 -5.5t-4.5 -13t5.5 -12.5z" />
    <glyph glyph-name="uniE67C" unicode="&#xe67c;" 
d="M293 24zM231 24.5q0 25.5 18 44t44 18.5t44.5 -18.5t18.5 -44t-18.5 -44t-44.5 -18.5t-44 18.5t-18 44zM431 746h-275q-14 0 -24.5 -10t-10.5 -24v-825q0 -14 10.5 -24t24.5 -10h275q14 0 24 10t10 24v825q0 14 -10 24t-24 10zM225 643h137v-343h-137v343zM293 -82
q-44 0 -75 31t-31 75.5t31 75.5t75 31t75.5 -31t31.5 -75.5t-31.5 -75.5t-75.5 -31zM712.5 97.5q-24.5 -3.5 -40 -23t-12 -44.5t23 -40t44.5 -12t40 23t12 44.5t-23 40t-44.5 12zM902 -72l-104 790q-2 14 -13 22.5t-25 6.5l-263 -35q-14 -2 -22.5 -13t-6.5 -24l105 -791
q2 -13 13 -21.5t24 -6.5l264 35q13 1 21.5 12t6.5 25zM576 622l131 17l44 -329l-132 -17zM733.5 -64.5q-42.5 -5.5 -76 20.5t-39.5 68.5t20 76t68.5 39.5t76.5 -20t39.5 -68.5t-20.5 -76.5t-68.5 -39.5z" />
    <glyph glyph-name="uniE67E" unicode="&#xe67e;" 
d="M743 610v-117l135 205l-135 198v-111q-5 0 -14.5 1t-39 -0.5t-58 -5.5t-68.5 -16.5t-75.5 -31t-73 -51.5t-66 -75.5t-51 -105.5t-30.5 -139h29q35 67 78.5 117t85 76.5t84 42.5t77.5 19t63 2.5t44 -4.5zM774 234q-3 10 -15 17t-25 7h-659q-13 0 -20.5 -7t-4.5 -17
l110 -338q4 -10 15.5 -17t25.5 -7h658q14 0 21.5 7t3.5 17zM838 469h-173q-45 2 -70 -108h-299q-13 -23 -23 -47q-3 -6 -4 6q-4 24 -2 41h-70q-13 0 -23 -9.5t-10 -23.5v-37h570q22 0 42 -11q22 -14 30 -36l82 -254v405q0 6 -1.5 13.5t-6 23.5t-15.5 26.5t-27 10.5z" />
    <glyph glyph-name="uniE682" unicode="&#xe682;" 
d="M446 489zM254 489.5q0 79.5 56 136t136 56.5t136 -56.5t56 -136t-56 -136t-136 -56.5t-136 56.5t-56 136zM435 49q0 53 23 99.5t63 78.5q-37 8 -75 8q-132 0 -225.5 -93.5t-93.5 -225.5h351q-43 59 -43 133zM591 235q-7 0 -12 -5.5t-5 -12.5v-29q0 -7 5 -12t12 -5h287
q7 0 12 5t5 12v29q0 7 -5 12.5t-12 5.5h-287zM728 60q0 -7 5 -12t12 -5h132q8 0 13 5t5 12v29q0 8 -5 13t-13 5h-132q-7 0 -12 -5t-5 -13v-29zM642 89q0 8 -5 13t-12 5h-34q-7 0 -12 -5t-5 -13v-29q0 -7 5 -12t12 -5h34q7 0 12 5t5 12v29zM574 -68q0 -7 5 -12t12 -5h288
q7 0 12 5t5 12v29q0 8 -5 13t-12 5h-288q-7 0 -12 -5t-5 -13v-29z" />
    <glyph glyph-name="uniE685" unicode="&#xe685;" 
d="M805 383q14 -2 29 -5v227q0 30 -18 51.5t-43 21.5h-606q-25 0 -42.5 -21.5t-17.5 -51.5v-398q0 -30 17.5 -51.5t42.5 -21.5h242v-145h-30q-13 0 -20.5 -9t-8.5 -18l-1 -9h242q0 16 -7.5 25t-14.5 10l-8 1h-30v145h33q14 -74 73 -123.5t136 -49.5q88 0 150 62t62 150
q0 79 -51.5 139t-128.5 71zM572 243q-6 -18 -9 -36h-396v398h606v-220q-15 0 -30 -2v186h-545v-326h374zM907 156h-63v-105h-170l-23 24v170h105v62h88v-62h63v-89zM826 290h-52v-62h-62v-53h62v-62h52v62h62v53h-62v62z" />
    <glyph glyph-name="uniE692" unicode="&#xe692;" 
d="M730 292q-11 0 -21 -4l-96 95l96 96q10 -4 21 -4q21 0 35.5 14.5t14.5 35.5t-14.5 36t-35.5 15t-36 -15t-15 -36q0 -11 5 -21l-95 -96l-36 35q12 27 -7 49l-2 2v0v1h-1q-13 14 -32.5 14t-33.5 -14q-22 -23 -10 -52l-35 -35l-97 97q5 10 5 20q0 21 -15 36t-36 15
t-35.5 -15t-14.5 -36t14.5 -35.5t35.5 -14.5q12 0 22 5l96 -97l-96 -96q-10 5 -22 5q-21 0 -35.5 -15t-14.5 -36t14.5 -35.5t35.5 -14.5t36 14.5t15 35.5q0 11 -5 21l97 97l35 -35q-12 -30 10 -52q14 -14 33.5 -14t32.5 14h1v1v1l2 1q19 22 7 48l36 36l95 -96q-5 -10 -5 -22
q0 -21 15 -35.5t36 -14.5t35.5 14.5t14.5 35.5t-14.5 36t-35.5 15zM529 348q-19 8 -37 0l-35 35l35 36q18 -8 37 0l35 -36zM790 830h-557q-69 0 -118.5 -49.5t-49.5 -118.5v-557q0 -69 49.5 -118.5t118.5 -49.5h557q69 0 118.5 49.5t49.5 118.5v557q0 69 -49.5 118.5
t-118.5 49.5zM166 105v537l616 87h8q27 0 47 -19.5t20 -47.5v-537l-616 -87h-8q-28 0 -47.5 20t-19.5 47z" />
    <glyph glyph-name="uniE6A4" unicode="&#xe6a4;" 
d="M131 -111v839q0 13 -9.5 22.5t-23 9.5t-22.5 -9.5t-9 -22.5v-839q0 -13 9 -22.5t22.5 -9.5t23 9.5t9.5 22.5zM685 130q0 8 -5.5 14t-13.5 6h-465q-8 0 -14 -6t-6 -14v-126q0 -8 6 -13.5t14 -5.5h465q8 0 13.5 5.5t5.5 13.5v126zM955 374q0 8 -5.5 13.5t-13.5 5.5h-735
q-8 0 -14 -5.5t-6 -13.5v-127q0 -8 6 -13.5t14 -5.5h735q8 0 13.5 5.5t5.5 13.5v127zM181 617v-126q0 -8 6 -14t14 -6h611q8 0 13.5 6t5.5 14v126q0 8 -5.5 13.5t-13.5 5.5h-611q-8 0 -14 -5.5t-6 -13.5z" />
    <glyph glyph-name="uniE6AD" unicode="&#xe6ad;" 
d="M612 -16v59q130 28 208 120.5t78 220.5t-79.5 222.5t-206.5 119.5v58q147 -21 245.5 -134.5t98.5 -265.5t-98.5 -265.5t-245.5 -134.5zM469 41l-258 171h-85q-24 0 -41 17t-17 41v229q0 23 17 40t41 17h85l258 171q24 0 40.5 -16.5t16.5 -40.5v-572q0 -24 -16.5 -40.5
t-40.5 -16.5zM784 384q0 -75 -49.5 -131t-122.5 -66v57q50 10 82.5 49.5t32.5 91t-32.5 90.5t-82.5 49v57q73 -10 122.5 -66t49.5 -131z" />
    <glyph glyph-name="uniE6B0" unicode="&#xe6b0;" 
d="M512 597q-88 0 -150.5 -62.5t-62.5 -150.5t62.5 -150.5t150.5 -62.5t150.5 62.5t62.5 150.5t-62.5 150.5t-150.5 62.5zM512 811q-116 0 -214.5 -57t-155.5 -155.5t-57 -214.5t57 -214.5t155.5 -155.5t214.5 -57t214.5 57t155.5 155.5t57 214.5t-57 214.5t-155.5 155.5
t-214.5 57zM512 43q-93 0 -171.5 45.5t-124 124t-45.5 171.5t45.5 171.5t124 124t171.5 45.5t171.5 -45.5t124 -124t45.5 -171.5t-45.5 -171.5t-124 -124t-171.5 -45.5z" />
    <glyph glyph-name="uniE6B1" unicode="&#xe6b1;" 
d="M807 563h-117v42q0 9 -6 15.5t-15 6.5t-15 -6.5t-6 -15.5v-42h-275v42q0 9 -6 15.5t-15 6.5t-15 -6.5t-6 -15.5v-42h-114q-26 0 -44.5 -18.5t-18.5 -44.5v-464q0 -26 18.5 -44.5t44.5 -18.5h590q26 0 44.5 18.5t18.5 44.5v464q0 26 -18.5 44.5t-44.5 18.5zM831 36
q0 -10 -7 -17t-17 -7h-590q-10 0 -17 7t-7 17v464q0 10 7 17t17 7h114v-42q0 -9 6 -15t15 -6t15 6t6 15v42h275v-42q0 -9 6 -15t15 -6t15 6t6 15v42h117q10 0 17 -7t7 -17v-464zM280 385h97v-97h-97v97zM463 385h96v-97h-96v97zM642 385h97v-97h-97v97zM283 203h96v-96h-96
v96zM465 203h97v-96h-97v96zM645 203h96v-96h-96v96z" />
    <glyph glyph-name="uniE6C0" unicode="&#xe6c0;" horiz-adv-x="1414" 
d="M653.5 -117q-97.5 0 -180 20.5t-130 56.5t-47.5 78q0 41 45.5 76t122.5 56q18 -25 29 -40q-69 -15 -109.5 -39t-40.5 -53q0 -45 91 -76.5t219.5 -31.5t219.5 31.5t91 76.5q0 29 -40.5 53t-109.5 39q17 23 29 40q78 -21 123.5 -56t45.5 -76q0 -42 -48 -78t-130.5 -56.5
t-180 -20.5zM654 50q-14 13 -36.5 35.5t-80 87t-101.5 123.5t-80.5 131.5t-36.5 123.5q0 91 45 168t122 122t167.5 45t167.5 -45t122 -122t45 -168q0 -138 -234 -397q-56 -62 -100 -104zM653.5 695q-59.5 0 -101.5 -42t-42 -101.5t42 -101.5t101.5 -42t101.5 42t42 101.5
t-42 101.5t-101.5 42z" />
    <glyph glyph-name="uniE703" unicode="&#xe703;" 
d="M271.5 784q65.5 0 111.5 -46.5t46 -111.5v-159h-158q-65 0 -111 46.5t-46 112t46 112t111.5 46.5zM271 833q-86 0 -146.5 -60.5t-60.5 -147t60.5 -147t146.5 -60.5h161q19 0 33 13.5t14 32.5v161q0 87 -61 147.5t-147 60.5v0v0zM272 296h154v-155q0 -64 -45 -109.5
t-109 -45.5t-109.5 45.5t-45.5 109.5t45.5 109.5t109.5 45.5zM271 349q-86 0 -146.5 -61t-60.5 -147t60.5 -147t146.5 -61t147 61t61 147v161q0 19 -14 33t-33 14h-161v0v0zM756.5 785q64.5 0 110.5 -46t46 -111t-46 -111t-111 -46h-156v157q0 65 46 111t110.5 46zM754 833
q-85 0 -146 -60.5t-61 -147.5v-161q0 -19 13.5 -32.5t33.5 -13.5h160q86 0 147 60.5t61 147t-61 147t-147 60.5v0v0zM754 297q65 0 110.5 -46t45.5 -110.5t-45.5 -110t-110 -45.5t-110 45.5t-45.5 110.5v156h155zM754 349h-160q-19 0 -33 -14t-14 -33v-161q0 -86 61 -147
t146.5 -61t146.5 61t61 147t-61 147t-147 61v0v0zM754 349z" />
    <glyph glyph-name="uniE726" unicode="&#xe726;" 
d="M64 446q222 30 451 29q15 23 34 43q69 69 166.5 69t166.5 -69q30 -30 48 -69q13 -1 30 -3v-322q-37 -5 -72 -10v-101h-65l-32 90q-286 -27 -560 0l-32 -90h-65v101q-35 4 -70 10v322zM717 437q-22 12 -49 1t-43.5 -39.5t-12.5 -58t25 -41.5q8 -5 15 -4.5t12 3t11.5 11
t10 14.5t11.5 19q4 8 6 11.5t7 11.5q12 20 16.5 30t3.5 22t-13 20zM816 452q-41 41 -100 41t-100.5 -41.5t-41.5 -100t41.5 -100.5t100.5 -42t100.5 41.5t41.5 100.5t-42 101zM171 241v-33h249v33h-249zM171 381v-33h249v33h-249zM171 312v-33h249v33h-249z" />
    <glyph glyph-name="uniE739" unicode="&#xe739;" 
d="M949 644q-36 3 -83 18v-1q-2 3 -5 5q-7 23 -18 83h-35q4 -36 14 -76q-92 21 -169 6.5t-126 -64.5q-50 -50 -63.5 -126t10.5 -168q-89 20 -161 6t-119 -60q-46 -47 -60 -119.5t7 -161.5q-36 9 -70 13v-35q39 -5 80 -18h1v0v-1q15 -48 20 -92h35q-4 40 -15 82
q54 -12 102 -12q113 0 179 65q46 47 60 119t-6 161q59 -16 112 -16q114 0 182 69q50 50 65 128t-8 173q36 -10 71 -14v36zM839 633q19 -71 17 -132l-149 149q61 2 132 -17zM852 456q-7 -37 -23 -67l-234 234q30 16 67 23zM496 463l-1 -1q3 35 15 64l222 -222
q-28 -12 -62 -15zM487 281q17 -63 17 -118l-135 135q55 0 118 -17zM500 118q-7 -36 -22 -64l-218 218q28 15 64 21zM165 115q3 33 13 61l204 -204q-31 -11 -68 -14l4 4zM272 -42q-43 3 -92 16q-13 49 -16 92zM416 -12l-222 221q11 18 25 33q5 5 11 10l228 -228
q-5 -6 -10 -11q-14 -14 -32 -25zM516 308v1v1h-1h-1h-1q-16 56 -19 105l127 -127q-49 2 -105 19v1zM765 320l-239 239q11 17 25 31q7 7 14 13l244 -244l-12 -14q-15 -14 -32 -25z" />
    <glyph glyph-name="uF0155" unicode="&#xf0155;" 
d="M924 118l-68 119q-5 9 -14.5 11.5t-17.5 -2.5t-10.5 -14t2.5 -18l68 -119q13 -21 6 -33t-32 -12h-699q-25 0 -31.5 12t5.5 34l349 604q12 21 26.5 21t26.5 -20l170 -294q4 -9 13.5 -11.5t18 2.5t11 14t-2.5 18l-170 294q-25 43 -66.5 42.5t-66.5 -42.5l-349 -605
q-26 -45 -6 -80t72 -35h699q52 0 72 35t-6 79zM510.5 548q-9.5 0 -16.5 -7t-7 -16.5t7 -16.5t16.5 -7t16.5 7t7 16.5t-7 16.5t-16.5 7zM487 435v-289q0 -9 7 -15t16.5 -6t16.5 6t7 15v289q0 8 -7 14t-16.5 6t-16.5 -6t-7 -14z" />
  </font>
</defs>
</svg>
